{
	"asset":{
		"generator":"Khronos glTF Blender I/O v3.6.28",
		"version":"2.0"
	},
	"scene":0,
	"scenes":[
		{
			"name":"Scene",
			"nodes":[
				0
			]
		}
	],
	"nodes":[
		{
			"mesh":0,
			"name":"hull.tall",
			"translation":[
				-24.611995697021484,
				-11.5960054397583,
				-76.8213119506836
			]
		}
	],
	"materials":[
		{
			"doubleSided":true,
			"name":"Flat",
			"pbrMetallicRoughness":{
				"baseColorFactor":[
					0.28100231289863586,
					0.28100231289863586,
					0.28100231289863586,
					1
				],
				"metallicFactor":0,
				"roughnessFactor":0.5
			}
		}
	],
	"meshes":[
		{
			"name":"Cube.674",
			"primitives":[
				{
					"attributes":{
						"POSITION":0,
						"NORMAL":1
					},
					"indices":2,
					"material":0
				}
			]
		}
	],
	"accessors":[
		{
			"bufferView":0,
			"componentType":5126,
			"count":8262,
			"max":[
				1.2207988500595093,
				7.262014865875244,
				4.5931196212768555
			],
			"min":[
				-1.2207988500595093,
				-7.262014865875244,
				-3.4360296726226807
			],
			"type":"VEC3"
		},
		{
			"bufferView":1,
			"componentType":5126,
			"count":8262,
			"type":"VEC3"
		},
		{
			"bufferView":2,
			"componentType":5123,
			"count":17940,
			"type":"SCALAR"
		}
	],
	"bufferViews":[
		{
			"buffer":0,
			"byteLength":99144,
			"byteOffset":0,
			"target":34962
		},
		{
			"buffer":0,
			"byteLength":99144,
			"byteOffset":99144,
			"target":34962
		},
		{
			"buffer":0,
			"byteLength":35880,
			"byteOffset":198288,
			"target":34963
		}
	],
	"buffers":[
		{
			"byteLength":234168,
			"uri":"data:application/octet-stream;base64,"
		}
	]
}
